<svg width="46" height="43" viewBox="0 0 46 43" fill="none" xmlns="http://www.w3.org/2000/svg">
<path fill-rule="evenodd" clip-rule="evenodd" d="M0 5.85725C0 2.43471 2.85864 -0.298065 6.26579 0.0261539C20.4295 1.37395 36.3968 4.85453 37.5834 6.63442C37.9901 7.2444 38.6652 9.38473 39.4172 12.4814L37.0095 12.1201C35.8217 9.68077 33.6516 7.81648 30.9848 7.0792C21.8988 4.56719 14.9312 3.61862 3.18888 3.15179V19.7796C17.7681 20.228 25.8963 21.9949 40.3167 27.5241C39.797 22.6434 39.0032 18.937 37.7791 14.3084L39.9156 14.6264C40.8885 18.9936 41.9167 24.6673 42.623 30.5177L38.9499 29.1184V30.9406L42.8821 32.8131C43.0215 34.1434 43.1419 35.4751 43.2389 36.7953C43.4836 40.1247 40.7805 42.8512 37.4421 42.8512H17.9917C20.3025 41.6077 21.8664 39.2177 21.8664 36.4734C21.8664 32.4479 18.5011 29.1845 14.3498 29.1845C10.1984 29.1845 6.83307 32.4479 6.83307 36.4734C6.83307 39.2177 8.39702 41.6077 10.7078 42.8512H6.00001C2.6863 42.8512 0 40.1649 0 36.8512V5.85725ZM30.422 26.315C29.7921 26.1232 29.1559 26.5946 29.1559 27.2531C29.1559 27.6847 29.4381 28.0655 29.851 28.1912L33.1287 29.1887C33.7587 29.3805 34.3948 28.9091 34.3948 28.2506C34.3948 27.819 34.1127 27.4382 33.6998 27.3125L30.422 26.315ZM20.4999 24.6668C20.4999 24.0279 21.09 23.5523 21.7143 23.688L24.95 24.3915C25.4104 24.4915 25.7388 24.899 25.7388 25.3702C25.7388 26.0091 25.1487 26.4847 24.5244 26.3489L21.2887 25.6455C20.8283 25.5454 20.4999 25.138 20.4999 24.6668Z" fill="white"/>
<path fill-rule="evenodd" clip-rule="evenodd" d="M34.7492 12.0487C34.2659 11.9762 34.0004 12.5907 34.3836 12.8947C35.172 13.5201 36.1104 13.9273 37.1047 14.0753L43.1584 14.9763L43.527 21.7862C43.5787 22.7419 44.3954 23.4739 45.351 23.4212C45.4705 23.4147 45.5621 23.3125 45.5556 23.193L45.1254 15.2448C45.0758 14.3303 44.4038 13.5978 43.5424 13.4358L43.5 13.3622L34.7492 12.0487Z" fill="white"/>
<path fill-rule="evenodd" clip-rule="evenodd" d="M14.5775 42.5574C17.8483 42.5574 20.4997 39.9059 20.4997 36.6351C20.4997 33.3644 17.8483 30.7129 14.5775 30.7129C11.3067 30.7129 8.65527 33.3644 8.65527 36.6351C8.65527 39.9059 11.3067 42.5574 14.5775 42.5574ZM14.5777 40.2795C16.5905 40.2795 18.2222 38.6479 18.2222 36.6351C18.2222 34.6223 16.5905 32.9906 14.5777 32.9906C12.5649 32.9906 10.9333 34.6223 10.9333 36.6351C10.9333 38.6479 12.5649 40.2795 14.5777 40.2795Z" fill="white"/>
</svg>
