<svg width="195" height="43" viewBox="0 0 195 43" fill="none" xmlns="http://www.w3.org/2000/svg">
<path fill-rule="evenodd" clip-rule="evenodd" d="M149.171 4.19508C149.171 1.75889 151.219 -0.186915 153.661 0.0143212C168.325 1.22249 185.735 4.92737 186.98 6.78325C187.389 7.39323 188.068 9.53354 188.825 12.6302L186.587 12.2963C185.896 10.0631 184.128 8.30258 181.861 7.65419C171.953 4.82116 164.838 3.79296 152.379 3.30061V19.9284C167.046 20.3768 175.223 22.1437 189.729 27.6729C189.207 22.7922 188.408 19.0858 187.177 14.4571L189.326 14.7751C190.305 19.1424 191.339 24.8161 192.05 30.6665L188.355 29.2673V31.0895L192.31 32.9619C192.513 34.8803 192.675 36.8018 192.784 38.6871C192.922 41.0595 190.986 43 188.596 43H167.271C169.596 41.7566 171.169 39.3665 171.169 36.6223C171.169 32.5967 167.783 29.3334 163.607 29.3334C159.431 29.3334 156.046 32.5967 156.046 36.6223C156.046 39.3665 157.619 41.7566 159.943 43H153.468C151.095 43 149.171 41.0879 149.171 38.7292V4.19508ZM179.775 26.4638C179.142 26.2721 178.502 26.7434 178.502 27.4019C178.502 27.8335 178.786 28.2144 179.201 28.34L182.498 29.3376C183.132 29.5293 183.772 29.058 183.772 28.3995C183.772 27.9679 183.488 27.587 183.073 27.4614L179.775 26.4638ZM169.794 24.8156C169.794 24.1768 170.388 23.7012 171.016 23.8369L174.271 24.5403C174.734 24.6404 175.064 25.0479 175.064 25.519C175.064 26.1579 174.471 26.6335 173.843 26.4978L170.588 25.7944C170.125 25.6943 169.794 25.2868 169.794 24.8156Z" fill="#4E29B5"/>
<path d="M184.129 12.1976C183.642 12.1251 183.375 12.7396 183.761 13.0436C184.554 13.669 185.498 14.0762 186.498 14.2242L192.588 15.1252L192.959 21.9351C193.011 22.8908 193.832 23.6228 194.794 23.5702C194.914 23.5636 195.006 23.4614 195 23.3419L194.567 15.3937C194.517 14.4792 193.841 13.7467 192.974 13.5847L192.932 13.5111L184.129 12.1976Z" fill="#4E29B5"/>
<path fill-rule="evenodd" clip-rule="evenodd" d="M163.836 42.7062C167.127 42.7062 169.794 40.0547 169.794 36.784C169.794 33.5132 167.127 30.8617 163.836 30.8617C160.546 30.8617 157.879 33.5132 157.879 36.784C157.879 40.0547 160.546 42.7062 163.836 42.7062ZM163.837 40.4284C165.862 40.4284 167.503 38.7967 167.503 36.7839C167.503 34.7711 165.862 33.1395 163.837 33.1395C161.812 33.1395 160.17 34.7711 160.17 36.7839C160.17 38.7967 161.812 40.4284 163.837 40.4284Z" fill="#4E29B5"/>
<path d="M12.2448 41.7973C9.83879 41.7973 7.53304 41.4841 5.32755 40.8577C3.12206 40.2029 1.34621 39.3629 0 38.3379L2.36303 33.1275C3.65195 34.0386 5.17002 34.7931 6.91723 35.3911C8.69308 35.9605 10.4832 36.2452 12.2877 36.2452C13.6626 36.2452 14.7653 36.1171 15.596 35.8609C16.4553 35.5761 17.0854 35.1917 17.4864 34.7077C17.8874 34.2237 18.0879 33.6685 18.0879 33.0421C18.0879 32.2449 17.7728 31.6185 17.1427 31.1629C16.5125 30.6789 15.6819 30.2945 14.6508 30.0098C13.6196 29.6966 12.4739 29.4119 11.2136 29.1556C9.982 28.8709 8.73604 28.5292 7.47576 28.1306C6.24412 27.732 5.11273 27.2195 4.08159 26.5931C3.05045 25.9667 2.20549 25.141 1.54671 24.116C0.916568 23.091 0.601498 21.7813 0.601498 20.1869C0.601498 18.4785 1.05978 16.9268 1.97635 15.5316C2.92156 14.108 4.32506 12.9834 6.18683 12.1577C8.07726 11.3035 10.4403 10.8764 13.2759 10.8764C15.1663 10.8764 17.0281 11.1042 18.8613 11.5597C20.6944 11.9868 22.3127 12.6417 23.7162 13.5243L21.568 18.7775C20.1645 17.9803 18.761 17.3966 17.3575 17.0264C15.954 16.6278 14.5792 16.4285 13.233 16.4285C11.8867 16.4285 10.784 16.5851 9.92471 16.8983C9.06543 17.2115 8.44961 17.6243 8.07726 18.1368C7.7049 18.6209 7.51872 19.1903 7.51872 19.8452C7.51872 20.6139 7.83379 21.2403 8.46393 21.7244C9.09407 22.1799 9.92471 22.5501 10.9559 22.8348C11.987 23.1195 13.1184 23.4042 14.35 23.6889C15.6103 23.9737 16.8563 24.3011 18.0879 24.6712C19.3482 25.0414 20.4939 25.5396 21.525 26.166C22.5562 26.7924 23.3868 27.6181 24.0169 28.6431C24.6757 29.6681 25.0051 30.9636 25.0051 32.5296C25.0051 34.2095 24.5325 35.747 23.5873 37.1421C22.6421 38.5372 21.2243 39.6619 19.3339 40.5161C17.4721 41.3702 15.1091 41.7973 12.2448 41.7973Z" fill="#4E29B5"/>
<path d="M43.3377 17.966C45.1709 17.966 46.8035 18.3362 48.2356 19.0764C49.6964 19.7882 50.8421 20.8987 51.6728 22.4077C52.5034 23.8883 52.9187 25.7959 52.9187 28.1306V41.2848H46.2163V29.1556C46.2163 27.3049 45.801 25.9383 44.9704 25.0556C44.1684 24.173 43.0226 23.7317 41.5332 23.7317C40.4734 23.7317 39.5139 23.9594 38.6546 24.415C37.824 24.8421 37.1652 25.5112 36.6783 26.4223C36.22 27.3334 35.9908 28.5008 35.9908 29.9244V41.2848H29.2884V9.59516H35.9908V24.6712L34.4871 22.7494C35.3177 21.2119 36.5064 20.0303 38.0531 19.2046C39.5998 18.3789 41.3614 17.966 43.3377 17.966Z" fill="#4E29B5"/>
<path d="M68.747 41.6265C66.8279 41.6265 65.1093 41.2563 63.5913 40.5161C62.1018 39.7758 60.9418 38.6511 60.1112 37.1421C59.2805 35.6046 58.8652 33.6542 58.8652 31.291V18.3077H65.5676V30.3088C65.5676 32.2164 65.9686 33.6258 66.7706 34.5369C67.6013 35.4195 68.7613 35.8609 70.2507 35.8609C71.2819 35.8609 72.1984 35.6473 73.0004 35.2202C73.8024 34.7647 74.4326 34.0813 74.8908 33.1702C75.3491 32.2306 75.5783 31.0633 75.5783 29.6681V18.3077H82.2807V41.2848H75.922V34.964L77.082 36.8004C76.3087 38.3949 75.1629 39.605 73.6449 40.4307C72.1555 41.2279 70.5228 41.6265 68.747 41.6265Z" fill="#4E29B5"/>
<path d="M97.9421 41.6265C95.221 41.6265 93.1015 40.9432 91.5834 39.5765C90.0653 38.1813 89.3063 36.1171 89.3063 33.3838V13.2254H96.0087V33.2983C96.0087 34.2664 96.2665 35.0209 96.7821 35.5619C97.2976 36.0744 97.9994 36.3306 98.8873 36.3306C99.9471 36.3306 100.849 36.0459 101.594 35.4765L103.399 40.1744C102.711 40.6584 101.88 41.0286 100.907 41.2848C99.9614 41.5126 98.9732 41.6265 97.9421 41.6265ZM85.7403 23.9452V18.8202H101.766V23.9452H85.7403Z" fill="#4E29B5"/>
<path d="M107.161 41.2848V9.59516H113.863V41.2848H107.161Z" fill="#4E29B5"/>
<path d="M134.262 41.2848V36.8004L133.832 35.8181V27.789C133.832 26.3653 133.388 25.2549 132.5 24.4577C131.641 23.6605 130.309 23.2619 128.505 23.2619C127.273 23.2619 126.056 23.4612 124.853 23.8598C123.678 24.2299 122.676 24.7424 121.845 25.3973L119.439 20.7421C120.7 19.8594 122.218 19.1761 123.993 18.6921C125.769 18.208 127.574 17.966 129.407 17.966C132.93 17.966 135.665 18.7917 137.613 20.4431C139.561 22.0945 140.535 24.6712 140.535 28.1733V41.2848H134.262ZM127.216 41.6265C125.411 41.6265 123.865 41.3275 122.576 40.7296C121.287 40.1032 120.299 39.2633 119.611 38.2098C118.924 37.1563 118.58 35.9747 118.58 34.665C118.58 33.2983 118.909 32.1025 119.568 31.0775C120.256 30.0525 121.33 29.2553 122.79 28.6858C124.251 28.0879 126.156 27.789 128.505 27.789H134.649V31.6754H129.235C127.66 31.6754 126.571 31.9317 125.97 32.4442C125.397 32.9567 125.111 33.5973 125.111 34.3661C125.111 35.2202 125.44 35.9036 126.099 36.4161C126.786 36.9001 127.717 37.1421 128.891 37.1421C130.008 37.1421 131.011 36.8859 131.899 36.3733C132.787 35.8324 133.431 35.0494 133.832 34.0244L134.863 37.0994C134.376 38.58 133.489 39.7046 132.2 40.4734C130.911 41.2421 129.249 41.6265 127.216 41.6265Z" fill="#4E29B5"/>
</svg>
